<svg xmlns="http://www.w3.org/2000/svg" width="1045.2266" height="441.62714" x="0px" y="0px" viewBox="0 0 1045.2266 441.62714"><defs><radialGradient id="a" cx="0" cy="0" r="1" fx="0" fy="0" gradientTransform="matrix(77.78012 1.61037 1.61037 -77.64786 56.522 70.027)" gradientUnits="userSpaceOnUse" spreadMethod="pad"><stop offset="0" style="stop-opacity:1;stop-color:#afd5ef"/><stop offset="0.218185" style="stop-opacity:1;stop-color:#afd5ef"/><stop offset="0.25985087" style="stop-opacity:1;stop-color:#afd5ef"/><stop offset="0.52121" style="stop-opacity:1;stop-color:#5d99ca"/><stop offset="1" style="stop-opacity:1;stop-color:#225471"/></radialGradient><radialGradient id="b" cx="0" cy="0" r="1" fx="0" fy="0" gradientTransform="matrix(22.52022 4.17558 4.18246 -22.48128 2.438 9.334)" gradientUnits="userSpaceOnUse" spreadMethod="pad"><stop offset="0" style="stop-opacity:1;stop-color:#afd5ef"/><stop offset="0.02000099" style="stop-opacity:1;stop-color:#afd5ef"/><stop offset="0.145462" style="stop-opacity:1;stop-color:#5d99ca"/><stop offset="0.854538" style="stop-opacity:1;stop-color:#225471"/><stop offset="1" style="stop-opacity:1;stop-color:#225471"/></radialGradient></defs><path d="M0 0h-.388q-.009-.001-.007-.002Z" style="fill:#f2a015;fill-opacity:1;fill-rule:nonzero;stroke:none" transform="matrix(3.07866 0 0 -3.07866 506.938 350.114)"/><path d="M0 0c-.947.408-1.921.791-2.916 1.136-18.352 6.328-40.726 3.483-52.231-13.204a28 28 0 0 1 2.57-.125l28.868-.123c.824 0 1.645-.471 1.645-1.289-.111-.834-.705-1.301-1.528-1.301H-56.53c-.012-.016-5.712-12.356-18.491-6.687l.024.013c-.261.098-.519.189-.781.302-5.743 2.133-10.383 3.623-13.576 4.575a55.4 55.4 0 0 0-10.465-14.235 56 56 0 0 0-6.767-5.658c2.016-2.395 5.028-3.996 9.051-3.996h73.709c14.955 0 27.57 11.903 27.57 26.987C3.744-8.671 2.374-4.014 0 0" style="fill:#f2a015;fill-opacity:1;fill-rule:nonzero;stroke:none" transform="matrix(3.07866 0 0 -3.07866 681.117 304.222)"/><path d="M0 0h-28.862c-.356 0-.707.235-.944.479-.59.468-.59 1.291 0 1.881.237.234.588.353.944.353h43.474c16.026 0 16.026 25.686 0 25.686h-43.474c-1.293 0-2.362 0-3.535-.241-5.776-.701-11.315-3.294-15.787-7.773-10.605-10.481-10.605-27.569 0-38.051 4.455-4.558 10.091-7.296 16.28-7.889C-20.398-8.867 1.976-6.022 20.327-12.351a42 42 0 0 0 2.916-1.135C18.538-5.52 9.873-.074 0 0" style="fill:#facb68;fill-opacity:1;fill-rule:nonzero;stroke:none" transform="matrix(3.07866 0 0 -3.07866 609.559 262.702)"/><path d="m0 0-.046-.002H0Z" style="fill:#facb68;fill-opacity:1;fill-rule:nonzero;stroke:none" transform="matrix(3.07866 0 0 -3.07866 507.08 350.108)"/><path d="m0 0-.395-.002q.001 0 .007.002h-31.51a54 54 0 0 0-.88-1.797c3.193-.952 7.833-2.441 13.576-4.575.263-.112.52-.204.781-.302l-.024-.013C-5.666-12.355.034-.016.046 0Z" style="fill:#facb68;fill-opacity:1;fill-rule:nonzero;stroke:none" transform="matrix(3.07866 0 0 -3.07866 506.938 350.114)"/><path d="M0 0c-.825 5.771-3.294 11.31-7.773 15.785-10.607 10.606-27.921 10.606-38.53 0-5.064-5.066-7.89-11.662-7.89-18.734l-.117-29.099c0-.822-.477-1.655-1.301-1.53-.934-.125-1.411.708-1.411 1.53v29.099c0 7.072-2.832 13.668-8.011 18.734-10.604 10.606-27.803 10.606-38.41 0-4.478-4.475-7.072-10.014-7.779-15.785-.141-.629-.192-1.297-.214-1.975-.374-4.726-.38-12.008-.142-16.191.072-1.308.181-2.611.301-3.914 8.637-5.244 16.088-12.344 25.625-17.088v29.623q-.002.003-.003.011v6.219c0 .718.617 1.303 1.384 1.303.757 0 1.375-.585 1.375-1.303v-4.85c.035-7.648-.025-19.341.073-24.356a26.8 26.8 0 0 1 1.464-8.542 46.6 46.6 0 0 1 7.906-2.302c23.072-4.516 26.708 23.931 45.058 31.743v2.059c0 .013-.006.018-.006.029v6.219c0 .718.603 1.303 1.345 1.303.406 0 .756-.181 1.006-.455 0-.006.009-.007.017-.008.012-.019.013-.039.027-.054a1.2 1.2 0 0 0 .226-.45c.062-.167.092-.32.092-.441v-7.276c9.206 2.505 18.176-.851 25.929-6.615V-3.42C.241-2.24.123-1.063 0 0" style="fill:#e24b63;fill-opacity:1;fill-rule:nonzero;stroke:none" transform="matrix(3.07866 0 0 -3.07866 1044.483 243.497)"/><path d="M0 0c.095-.154.178-.307.226-.45A1.25 1.25 0 0 1 0 0" style="fill:#fff;fill-opacity:1;fill-rule:nonzero;stroke:none" transform="matrix(3.07866 0 0 -3.07866 964.42 251.284)"/><path d="M0 0a46.7 46.7 0 0 0-7.906 2.303C-4.22-8.384 5.979-16.139 17.842-16.139c14.85 0 27.1 12.14 27.217 26.983v20.899C26.708 23.932 23.072-4.516 0 0" style="fill:#c70726;fill-opacity:1;fill-rule:nonzero;stroke:none" transform="matrix(3.07866 0 0 -3.07866 818.346 377.004)"/><path d="M0 0v-37.017c0-2.795.816-5.093 2.144-6.906 0 0 .013 0 .017-.002.801-1.097 4.919-6.267 11.131-5.82v-.002l.003.002q1.049.068 2.174.374c5.787 1.335 8.22 5.04 8.922 6.376.967 1.647 1.538 7.762 1.538 10.099v26.36C18.176-.841 9.205 2.475 0 0" style="fill:#c70726;fill-opacity:1;fill-rule:nonzero;stroke:none" transform="matrix(3.07866 0 0 -3.07866 965.4 276.391)"/><path d="M0 0c-9.537 4.744-16.987 11.844-25.625 17.088.1-1.006.201-2.014.332-3.018.514-4.041.647-8.088 1.064-12.128.286-2.735.307-5.48-.38-8.167-.971-3.795-2.717-6.997-5.657-9.545-3.781-2.933-7.539-5.802-13.998-5.316 0 0 4.606-2.146 13.218-3.625 4.69-.81 9.339-.499 14.608.266.055.005.106.017.163.023C1.653-21.932.362-8.057.111-6.223z" style="fill:#c70726;fill-opacity:1;fill-rule:nonzero;stroke:none" transform="matrix(3.07866 0 0 -3.07866 780.789 364.082)"/><path d="M.493 121.78a3.17 3.17 0 0 1-3.168-3.165v-14.604a3.17 3.17 0 0 1 6.338 0v14.604a3.17 3.17 0 0 1-3.17 3.164" style="fill:#0070b5;fill-opacity:1;fill-rule:nonzero;stroke:none" transform="matrix(3.07866 0 0 -3.07866 112.728 374.917)"/><path d="M-15.682 87.277a3.17 3.17 0 0 1-3.164 3.168H-33.45a3.173 3.173 0 0 1-3.166-3.168 3.17 3.17 0 0 1 3.166-3.17h14.604a3.17 3.17 0 0 1 3.165 3.17" style="fill:#c70726;fill-opacity:1;fill-rule:nonzero;stroke:none" transform="matrix(3.07866 0 0 -3.07866 112.728 374.917)"/><path d="M-25.602 112.481a3.17 3.17 0 0 1-.003-4.477l10.326-10.327a3.17 3.17 0 0 1 4.482 4.482l-10.327 10.326a3.17 3.17 0 0 1-4.478-.004" style="fill:#f2a015;fill-opacity:1;fill-rule:nonzero;stroke:none" transform="matrix(3.07866 0 0 -3.07866 112.728 374.917)"/><path d="M0 0h-40.894c-5.685 0-10.31-4.62-10.31-10.295q0-.174.032-.314V-73.34q0-.397.034-.797l-.049-6.618c11.43 1.241 25.355-12.723 36.084-14.465a49 49 0 0 0-2.016.731c-7.14 2.704-12.802 8.21-13.493 8.896l.028 11.633c.013.206.021.409.021.62v.024l-3.152-1.357c-12.536 23.987 3.004 36.417 3.004 36.417l.148-.16v4.791c2.211 3.338 11.546 14.154 38.581 12.178 7.135-1.532 13.722-5.086 19.062-10.405 7.282-7.275 11.295-16.877 11.295-27.032 0-10.173-4.004-19.786-11.28-27.069a39.3 39.3 0 0 0-5.343-4.453l-1.134.717c-.186-.237-.624-.557-.624-.557-.344-.272-2.729-1.692-2.729-1.692-.403-.302-3.666-1.859-3.666-1.859-.297-.168-3.098-1.226-3.098-1.226-.849-.327-3.369-1.017-3.369-1.017-3.043-.859-6.656-1.128-7.512-1.181h-4.559c-.737.054-1.5.137-2.233.235a36 36 0 0 0 2.33-.779c16.503-5.936 19.365-10.549 39.171-7.252q1.03.172 2.042.316c.241.036.484.065.724.099A59.6 59.6 0 0 1 51.424-87.65a58.54 58.54 0 0 1 7.581 28.766C58.949-26.467 32.482-.049 0 0" style="fill:#51bae1;fill-opacity:1;fill-rule:nonzero;stroke:none" transform="matrix(3.07866 0 0 -3.07866 232.856 75.902)"/><path d="M0 0c-5.617 1.305-7.967 3.521-7.967 3.521l-16.715-5.869-9.665-.651.137-.853c-.247.089-.49.182-.742.275-.725.274-1.508.53-2.323.778-2.34.307-4.392.739-4.392.739-1.219.275-2.511.677-3.54 1.028C-52.815.201-62.029 7.747-70.819 11.6l5.264 5.478c-1.372-.455-2.354 2.473-2.376 2.475-6.188 1.09-13.22 4.148-13.22 4.148l-.147-9.923v-.475l-.008-2.973h.008l.211-19.848c.52-1.991 1.036-10.056 12.47-13.982 0 0 .439-.111.436-.112l38.077.001c12.895.019 24.841 4.196 34.563 11.254C15.112-5.246 21.165 6.082 21.165 6.082 14.222-.671 1.701-.393 0 0" style="fill:#0070b5;fill-opacity:1;fill-rule:nonzero;stroke:none" transform="matrix(3.07866 0 0 -3.07866 325.17 365.874)"/><path d="M37.838 79.114C21.859 78.783 7.709 69.3 1.311 54.803l-.036.016-.601-1.531q-.015-.041-.033-.083-.01-.031-.023-.064l-.609-1.549.04-.015L0 51.433V25.292C3.732 14.287 12.115 4.934 23.774.379Q24.277.183 24.782 0h27.837a40.7 40.7 0 0 1 23.408 21.877l.033-.013.586 1.484q.02.064.05.127c.01.033.022.062.032.096l.598 1.518-.042.016c7.069 20.518-3.297 43.217-23.725 51.199a40.7 40.7 0 0 1-14.876 2.818q-.422 0-.845-.008m-10.123-6.136a36.6 36.6 0 0 0 10.217 1.686c.215.004.425-.007.641-.007-2.617-1.43-5.548-3.493-8.54-6.472a31 31 0 0 0-2.318 4.793m4.286-7.722c5.514 5.686 10.779 7.859 13.86 8.683A36 36 0 0 0 50.3 72.75l-6.659-16.981c-3.927 1.82-8.219 4.967-11.64 9.487M5.484 53.17c3.822 8.533 10.649 15.098 18.976 18.617a35 35 0 0 1 3.116-6.25c-3.552-4.135-7.071-9.669-10.142-17.035zm41.392 1.351 6.654 16.967a40 40 0 0 0 2.452-1.214c1.729-2.65 4.468-8.224 4.528-16.989a37 37 0 0 0-3.949-.215c-3.056 0-6.343.396-9.685 1.451m14.908 11.853a36.3 36.3 0 0 0 8.809-10.665 41 41 0 0 0-6.586-1.884c-.08 5.181-1.041 9.347-2.223 12.549M20.66 47.24c2.755 6.602 5.868 11.606 8.993 15.389 3.791-4.799 8.46-8.147 12.721-10.086l-4.688-11.958Zm39.174-15.312c2.582 7.004 3.775 13.099 4.089 18.312a44 44 0 0 1 8.193 2.326c3.394-7.955 3.973-17.11 1.018-25.841zm-18.921 7.394 4.695 11.969c4.133-1.344 8.162-1.783 11.833-1.707 1.015.018 1.996.083 2.951.173-.346-4.727-1.464-10.242-3.785-16.569zM5.335 23.794c-3.658 8.354-4.05 17.581-1.132 26.159l11.963-4.677c-2.707-7.399-3.742-13.871-3.794-19.378a42.5 42.5 0 0 1-6.991-2.201q-.022.049-.046.097m14.063 20.217 17.025-6.648-4.679-11.923c-5.759 1.734-11.286 1.74-15.898 1.089.124 4.979 1.114 10.817 3.552 17.482m15.611-19.734 4.642 11.819 15.691-6.132c-2.516-5.991-5.448-10.647-8.447-14.255-3.691 4.078-7.992 6.916-11.886 8.568m14.115-11.296c3.377 3.944 6.663 9.071 9.445 15.722l13.28-5.193A36.23 36.23 0 0 0 53.47 5.166a34.6 34.6 0 0 1-4.346 7.815M20.96 6.62c-1.521 2.245-4.558 7.759-5.056 16.385 4.222.642 9.315.718 14.572-.797L23.802 5.194c-.97.434-1.922.914-2.842 1.426M6.934 20.579a41 41 0 0 0 5.542 1.751c.324-4.712 1.349-8.58 2.508-11.573a36 36 0 0 0-8.05 9.822M27.033 3.934l6.716 17.116c3.549-1.519 7.476-4.152 10.817-7.935-6.839-7.007-13.57-9.068-16.138-9.617-.463.134-.932.277-1.395.436m8.161-1.746c3.33 1.533 7.422 4.068 11.535 8.194a31.3 31.3 0 0 0 3.514-6.488 36.8 36.8 0 0 0-10.841-1.875q-.323-.006-.645-.006c-1.192 0-2.38.061-3.563.175" style="fill:url(#a);stroke:none" transform="matrix(3.07866 0 0 -3.07866 112.728 374.917)"/><path d="M18.929 26.065a3.2 3.2 0 0 1-.638-.457c-.181-.162-.353-.353-.529-.529-3.988 1.62-7.609.804-8.479.567a17.8 17.8 0 0 1-5.319-1.895A19 19 0 0 1 0 20.841V0h26.673c.031.186.036.374.026.56.168.174.319.374.431.59.139.278 3.409 6.768.513 14.254-.233.799-1.27 3.84-4.152 6.305a3.18 3.18 0 0 1-.264 3.324 3.37 3.37 0 0 1-2.743 1.43 3.24 3.24 0 0 1-1.555-.398" style="fill:url(#b);stroke:none" transform="matrix(3.07866 0 0 -3.07866 112.728 374.917)"/><path d="M0 0c-.252-.574-.525-.802-.853-1.399a204 204 0 0 0-2.433-4.273c-.651-1.121-1.315-2.247-1.972-3.369-.269-.441-1.426-2.232-1.809-2.647-.743-.796-1.398-1.506-2.272-2.138-.751-.546-1.578-.963-2.374-1.442a8.5 8.5 0 0 0-2.066-.832 17 17 0 0 0-1.683-.353 18.6 18.6 0 0 0-3.449-.249c-1.659.046-3.318.348-4.842 1.014-1.045.459-1.784 1.113-2.656 1.79-9.509 7.363-3.503 18.484-3.503 18.484.626 1.791 3.487 6.457 4.8 8.618.51.844 1.045-.097 1.045-.097 5.419-7.875 9.963-9.693 9.963-9.693C-7.914.031-3.565.479-.576.711-.576.711.309.699 0 0" style="fill:#fff;fill-opacity:1;fill-rule:nonzero;stroke:none" transform="matrix(3.07866 0 0 -3.07866 183.396 377.238)"/><path d="M0 0h.004c-1.135-.916-2.726-3.163-3.521-4.333a5 5 0 0 1-.226-.326.71.71 0 0 0-.753-.312c-3.643 1.62-7.017.59-7.017.59-6.626-1.178-9.821-6.443-9.821-6.443 1.847-5.773 9.017-9.936 9.017-9.936l1.219 2.223c-.032.031-.045.062-.069.098a8.3 8.3 0 0 1 2.233-1.221q-.082-.002-.172.008l-1.252-2.201s7.306-3.914 13.199-2.458c0 0 2.818 5.473.347 11.731 0 0-.845 3.461-4.242 5.705a.72.72 0 0 0-.162.593c.006.011.017.016.023.031.011.02.425.759 1.214 1.825q.097.108.175.231c.941 1.235 2.45 2.851 4.325 4.32C2.734.39 1.131.358.405.377.279.264.113.119 0 0" style="fill:#fff;fill-opacity:1;fill-rule:nonzero;stroke:none" transform="matrix(3.07866 0 0 -3.07866 178.186 293.134)"/><path d="M0 0c-.514-.887-1.627-1.205-2.487-.715-.861.496-1.136 1.621-.618 2.512l1.906 3.293c.513.889 1.631 1.204 2.488.709.859-.496 1.139-1.619.623-2.507Z" style="fill:#3d68a0;fill-opacity:1;fill-rule:nonzero;stroke:none" transform="matrix(3.07866 0 0 -3.07866 157.606 343.764)"/></svg>